<svg xmlns="http://www.w3.org/2000/svg" xmlns:xlink="http://www.w3.org/1999/xlink" width="1095" height="743" viewBox="0 0 1095 743)"><g transform="translate(-50.95,-105.50)"><g transform="translate(56.45,111.00)" id="shape1"><path fill="#ebebeb" d="M1084,724.4L1084,7.5C1084,3.3,1080.6,0,1076.4,0L7.5,0C3.3,0,0,3.3,0,7.5L0,724.4C0,728.6,3.3,732,7.5,732L1076.4,732C1080.6,732,1084,728.6,1084,724.4Z"/></g><g transform="translate(66.50,287.02)" id="shape2"><path fill="#aad3f5" d="M180,78.8L180,15.1C180,6.7,173.2,0,164.8,0L15.1,0C6.7,0,0,6.7,0,15.1L0,78.8C0,87.2,6.7,94,15.1,94L164.8,94C173.2,94,180,87.2,180,78.8Z"/><text xmlns="http://www.w3.org/2000/svg" xml:space="preserve"><tspan x="37.0625" y="23.400000011919474" textLength="105.87500429153442" style="fill:rgb(7, 69, 114);font-family:Arial;font-size:12pt;font-weight:normal;">Est-ce que les </tspan><tspan x="21.475000381469727" y="42.599999999998545" textLength="137.03750610351562" style="fill:rgb(7, 69, 114);font-family:Arial;font-size:12pt;font-weight:normal;">utilisateurs doivent </tspan><tspan x="21.92500114440918" y="61.800000762938" textLength="136.15000677108765" style="fill:rgb(7, 69, 114);font-family:Arial;font-size:12pt;font-weight:normal;">pouvoir modifier et </tspan><tspan x="18.375" y="81.00000152587745" textLength="143.25000667572021" style="fill:rgb(7, 69, 114);font-family:Arial;font-size:12pt;font-weight:normal;">créer des rapports ?</tspan></text></g><g transform="translate(156.50,381.02)" id="shape3"><path stroke="#000000" d="M0,0L0,12" fill="none"/></g><g transform="translate(132.50,393.02)" id="shape4"><path fill="#ffd78e" d="M24,29L48,14.5L24,0L0,14.5L24,29Z"/></g><g transform="translate(66.00,453.52)" id="shape5"><path fill="#aad3f5" d="M181,59.8L181,15.1C181,6.7,174.2,0,165.8,0L15.1,0C6.7,0,0,6.7,0,15.1L0,59.8C0,68.2,6.7,75,15.1,75L165.8,75C174.2,75,181,68.2,181,59.8Z"/><text xmlns="http://www.w3.org/2000/svg" xml:space="preserve"><tspan x="13.08750057220459" y="23.50000001191802" textLength="154.82500743865967" style="fill:rgb(7, 69, 114);font-family:Arial;font-size:12pt;font-weight:normal;">Est-ce que le modèle </tspan><tspan x="33.55000114440918" y="42.69999999999709" textLength="113.88750505447388" style="fill:rgb(7, 69, 114);font-family:Arial;font-size:12pt;font-weight:normal;">est créé par les </tspan><tspan x="45.5625" y="61.90000076293654" textLength="89.87500381469727" style="fill:rgb(7, 69, 114);font-family:Arial;font-size:12pt;font-weight:normal;">utilisateurs ?</tspan><tspan x="135.4375" y="62.30000228881545" textLength="0" style="fill:rgb(0, 0, 0);font-family:Arial;font-size:10pt;font-weight:normal;"></tspan></text></g><g transform="translate(156.50,422.02)" id="shape6"><path stroke="#000000" d="M0,0L0,31" fill="none"/><rect xmlns="http://www.w3.org/2000/svg" x="-12.44999999999709" y="6.885000011922385" width="24.912500381469727" height="17.600000381469727" fill="rgb(255, 255, 255)"/><text xmlns="http://www.w3.org/2000/svg" xml:space="preserve"><tspan x="-12.44999999999709" y="20.885000011922386" textLength="24.912500381469727" style="fill:rgb(25, 25, 25);font-family:Arial;font-size:12pt;font-weight:normal;background-color:rgb(255, 255, 255);">Oui</tspan></text></g><g transform="translate(131.92,542.52)" id="shape7"><path fill="#ffd78e" d="M24,29L48,14.5L24,0L0,14.5L24,29Z"/></g><g transform="translate(156.50,528.52)" id="shape8"><path stroke="#000000" d="M0,0L0,14" fill="none"/></g><g transform="translate(155.92,571.52)" id="shape9"><path stroke="#000000" d="M0,0L0,152" fill="none"/><rect xmlns="http://www.w3.org/2000/svg" x="-12.44999999999709" y="48.56332959572338" width="24.912500381469727" height="17.600000381469727" fill="rgb(255, 255, 255)"/><text xmlns="http://www.w3.org/2000/svg" xml:space="preserve"><tspan x="-12.44999999999709" y="62.56332959572338" textLength="24.912500381469727" style="fill:rgb(25, 25, 25);font-family:Arial;font-size:12pt;font-weight:normal;background-color:rgb(255, 255, 255);">Oui</tspan></text></g><a><g transform="translate(90.99,723.64)" id="shape10"><path fill="#f4d0f2" d="M129,99.9L129,7.5C129,3.3,125.7,0,121.5,0L7.5,0C3.3,0,0,3.3,0,7.5L0,99.9C0,104.1,3.3,107.5,7.5,107.5L121.5,107.5C125.7,107.5,129,104.1,129,99.9Z"/><text xmlns="http://www.w3.org/2000/svg" xml:space="preserve"><tspan x="41.40916277480355" y="30.16000001191947" textLength="46.275002002716064" style="fill:rgb(25, 25, 25);font-family:Arial;font-size:12pt;font-weight:normal;">Projet </tspan><tspan x="17.184163347008138" y="49.35999999999854" textLength="94.72500467300415" style="fill:rgb(25, 25, 25);font-family:Arial;font-size:12pt;font-weight:normal;">d'exploration </tspan><tspan x="36.20916582656136" y="68.56000076293799" textLength="56.66250228881836" style="fill:rgb(25, 25, 25);font-family:Arial;font-size:12pt;font-weight:normal;">affaires </tspan><tspan x="37.40916277480355" y="87.76000152587744" textLength="54.26250076293945" style="fill:rgb(25, 25, 25);font-family:Arial;font-size:12pt;font-weight:normal;">(SBXU)</tspan></text></g></a><g transform="translate(242.55,723.64)" id="shape11"><path fill="#f4d0f2" d="M129,99.9L129,7.5C129,3.3,125.7,0,121.5,0L7.5,0C3.3,0,0,3.3,0,7.5L0,99.9C0,104.1,3.3,107.5,7.5,107.5L121.5,107.5C125.7,107.5,129,104.1,129,99.9Z"/><text xmlns="http://www.w3.org/2000/svg" xml:space="preserve"><tspan x="7.096663490059285" y="30.16000001191947" textLength="114.90000486373901" style="fill:rgb(25, 25, 25);font-family:Arial;font-size:12pt;font-weight:normal;">Projet d'affaires </tspan><tspan x="27.621664300682454" y="49.35999999999854" textLength="73.85000276565552" style="fill:rgb(25, 25, 25);font-family:Arial;font-size:12pt;font-weight:normal;">avec libre-</tspan><tspan x="36.97166277480355" y="68.56000076293799" textLength="55.150001525878906" style="fill:rgb(25, 25, 25);font-family:Arial;font-size:12pt;font-weight:normal;">service </tspan><tspan x="17.396663919212727" y="87.76000152587744" textLength="94.3000020980835" style="fill:rgb(25, 25, 25);font-family:Arial;font-size:12pt;font-weight:normal;">(DS-RPT-LB)</tspan></text></g><g transform="translate(216.85,580.50)" id="shape12"><path fill="#aad3f5" d="M181,50.8L181,15.1C181,6.7,174.2,0,165.8,0L15.1,0C6.7,0,0,6.7,0,15.1L0,50.8C0,59.2,6.7,66,15.1,66L165.8,66C174.2,66,181,59.2,181,50.8Z"/><text xmlns="http://www.w3.org/2000/svg" xml:space="preserve"><tspan x="20.450000762939453" y="19.00000001191802" textLength="140.10000658035278" style="fill:rgb(7, 69, 114);font-family:Arial;font-size:12pt;font-weight:normal;">Est-ce que l'équipe </tspan><tspan x="28.662500381469727" y="38.19999999999709" textLength="123.66250419616699" style="fill:rgb(7, 69, 114);font-family:Arial;font-size:12pt;font-weight:normal;">DGVI créera des </tspan><tspan x="54.462501525878906" y="57.40000076293654" textLength="72.0750036239624" style="fill:rgb(7, 69, 114);font-family:Arial;font-size:12pt;font-weight:normal;">rapports ?</tspan></text></g><g transform="translate(283.35,657.00)" id="shape13"><path fill="#ffd78e" d="M24,29L48,14.5L24,0L0,14.5L24,29Z"/></g><g transform="translate(307.35,646.50)" id="shape14"><path stroke="#000000" d="M0,0L0,11" fill="none"/></g><g transform="translate(307.35,686.00)" id="shape15"><path stroke="#000000" d="M0,0L0,37" fill="none"/><rect xmlns="http://www.w3.org/2000/svg" x="-12.44999999999709" y="9.700000011922384" width="24.912500381469727" height="17.600000381469727" fill="rgb(255, 255, 255)"/><text xmlns="http://www.w3.org/2000/svg" xml:space="preserve"><tspan x="-12.44999999999709" y="23.700000011922384" textLength="24.912500381469727" style="fill:rgb(25, 25, 25);font-family:Arial;font-size:12pt;font-weight:normal;background-color:rgb(255, 255, 255);">Oui</tspan></text></g><g transform="translate(394.10,723.29)" id="shape16"><path fill="#f4d0f2" d="M129.1,100.3L129.1,7.5C129.1,3.3,125.8,0,121.6,0L7.5,0C3.3,0,0,3.3,0,7.5L0,100.3C0,104.4,3.3,107.8,7.5,107.8L121.6,107.8C125.8,107.8,129.1,104.4,129.1,100.3Z"/><text xmlns="http://www.w3.org/2000/svg" xml:space="preserve"><tspan x="12.533470451639502" y="39.936842117181016" textLength="104.12500476837158" style="fill:rgb(25, 25, 25);font-family:Arial;font-size:12pt;font-weight:normal;">Projet de libre-</tspan><tspan x="39.24597197751841" y="59.13684210526009" textLength="50.70000123977661" style="fill:rgb(25, 25, 25);font-family:Arial;font-size:12pt;font-weight:normal;">service</tspan><tspan x="35.68347197751841" y="78.33684286819954" textLength="57.82500123977661" style="fill:rgb(25, 25, 25);font-family:Arial;font-size:12pt;font-weight:normal;">(DS-LB)</tspan></text></g><g transform="translate(697.31,723.64)" id="shape17"><path fill="#f4d0f2" d="M129,99.9L129,7.5C129,3.3,125.7,0,121.5,0L7.5,0C3.3,0,0,3.3,0,7.5L0,99.9C0,104.1,3.3,107.5,7.5,107.5L121.5,107.5C125.7,107.5,129,104.1,129,99.9Z"/><text xmlns="http://www.w3.org/2000/svg" xml:space="preserve"><tspan x="7.096663490059285" y="39.76000001191802" textLength="114.90000486373901" style="fill:rgb(25, 25, 25);font-family:Arial;font-size:12pt;font-weight:normal;">Projet d'affaires </tspan><tspan x="44.97166277480355" y="58.95999999999709" textLength="39.137500286102295" style="fill:rgb(25, 25, 25);font-family:Arial;font-size:12pt;font-weight:normal;">DGVI</tspan><tspan x="29.40916468215218" y="78.16000076293653" textLength="70.26250123977661" style="fill:rgb(25, 25, 25);font-family:Arial;font-size:12pt;font-weight:normal;">(DS-RPT)</tspan></text></g><g transform="translate(331.35,671.50)" id="shape18"><path stroke="#000000" d="M0,0L127,0L127,52" fill="none"/><rect xmlns="http://www.w3.org/2000/svg" x="74.8187494277949" y="-8.799999988077616" width="29.36250114440918" height="17.600000381469727" fill="rgb(255, 255, 255)"/><text xmlns="http://www.w3.org/2000/svg" xml:space="preserve"><tspan x="74.8187494277949" y="5.200000011922384" textLength="29.36250114440918" style="fill:rgb(25, 25, 25);font-family:Arial;font-size:12pt;font-weight:normal;background-color:rgb(255, 255, 255);">Non</tspan></text></g><g transform="translate(180.50,407.52)" id="shape19"><path stroke="#000000" d="M0,0L430,0L430,46" fill="none"/><rect xmlns="http://www.w3.org/2000/svg" x="223.31874942779191" y="-8.799999988077616" width="29.36250114440918" height="17.600000381469727" fill="rgb(255, 255, 255)"/><text xmlns="http://www.w3.org/2000/svg" xml:space="preserve"><tspan x="223.31874942779191" y="5.200000011922384" textLength="29.36250114440918" style="fill:rgb(25, 25, 25);font-family:Arial;font-size:12pt;font-weight:normal;background-color:rgb(255, 255, 255);">Non</tspan></text></g><g transform="translate(66.50,132.00)" id="shape20"><path fill="#aad3f5" d="M181,59.8L181,15.1C181,6.7,174.2,0,165.8,0L15.1,0C6.7,0,0,6.7,0,15.1L0,59.8C0,68.2,6.7,75,15.1,75L165.8,75C174.2,75,181,68.2,181,59.8Z"/><text xmlns="http://www.w3.org/2000/svg" xml:space="preserve"><tspan x="19.3125" y="23.50000001191802" textLength="142.37500667572021" style="fill:rgb(7, 69, 114);font-family:Arial;font-size:12pt;font-weight:normal;">Est-ce que le projet </tspan><tspan x="5.075000047683716" y="42.69999999999709" textLength="170.85000801086426" style="fill:rgb(7, 69, 114);font-family:Arial;font-size:12pt;font-weight:normal;">sera livré en production </tspan><tspan x="28.212499618530273" y="61.90000076293654" textLength="124.57500457763672" style="fill:rgb(7, 69, 114);font-family:Arial;font-size:12pt;font-weight:normal;">(livraison client) ?</tspan><tspan x="152.78750610351562" y="62.30000228881545" textLength="0" style="fill:rgb(0, 0, 0);font-family:Arial;font-size:10pt;font-weight:normal;"></tspan></text></g><g transform="translate(133.00,223.00)" id="shape21"><path fill="#ffd78e" d="M24,29L48,14.5L24,0L0,14.5L24,29Z"/></g><g transform="translate(848.86,723.64)" id="shape22"><path fill="#f4d0f2" d="M129,99.9L129,7.5C129,3.3,125.7,0,121.5,0L7.5,0C3.3,0,0,3.3,0,7.5L0,99.9C0,104.1,3.3,107.5,7.5,107.5L121.5,107.5C125.7,107.5,129,104.1,129,99.9Z"/><text xmlns="http://www.w3.org/2000/svg" xml:space="preserve"><tspan x="41.40916277480355" y="30.16000001191947" textLength="46.275002002716064" style="fill:rgb(25, 25, 25);font-family:Arial;font-size:12pt;font-weight:normal;">Projet </tspan><tspan x="17.184163347008138" y="49.35999999999854" textLength="94.72500467300415" style="fill:rgb(25, 25, 25);font-family:Arial;font-size:12pt;font-weight:normal;">d'exploration </tspan><tspan x="44.97166277480355" y="68.56000076293799" textLength="39.137500286102295" style="fill:rgb(25, 25, 25);font-family:Arial;font-size:12pt;font-weight:normal;">DGVI</tspan><tspan x="43.19666506362191" y="87.76000152587744" textLength="42.70000076293945" style="fill:rgb(25, 25, 25);font-family:Arial;font-size:12pt;font-weight:normal;">(SBX)</tspan></text></g><g transform="translate(157.00,207.00)" id="shape23"><path stroke="#000000" d="M0,0L0,16" fill="none"/></g><g transform="translate(157.00,252.00)" id="shape24"><path stroke="#000000" d="M0,0L0,35" fill="none"/><rect xmlns="http://www.w3.org/2000/svg" x="-12.44999999999709" y="8.700000011922384" width="24.912500381469727" height="17.600000381469727" fill="rgb(255, 255, 255)"/><text xmlns="http://www.w3.org/2000/svg" xml:space="preserve"><tspan x="-12.44999999999709" y="22.700000011922384" textLength="24.912500381469727" style="fill:rgb(25, 25, 25);font-family:Arial;font-size:12pt;font-weight:normal;background-color:rgb(255, 255, 255);">Oui</tspan></text></g><g transform="translate(821.59,306.02)" id="shape25"><path fill="#aad3f5" d="M181,59.8L181,15.1C181,6.7,174.2,0,165.8,0L15.1,0C6.7,0,0,6.7,0,15.1L0,59.8C0,68.2,6.7,75,15.1,75L165.8,75C174.2,75,181,68.2,181,59.8Z"/><text xmlns="http://www.w3.org/2000/svg" xml:space="preserve"><tspan x="21.537500381469727" y="23.50000001191802" textLength="137.91250658035278" style="fill:rgb(7, 69, 114);font-family:Arial;font-size:12pt;font-weight:normal;">Est-ce uniquement </tspan><tspan x="26.225000381469727" y="42.69999999999709" textLength="128.5375051498413" style="fill:rgb(7, 69, 114);font-family:Arial;font-size:12pt;font-weight:normal;">l'équipe DGVI qui </tspan><tspan x="12.1875" y="61.90000076293654" textLength="156.62500715255737" style="fill:rgb(7, 69, 114);font-family:Arial;font-size:12pt;font-weight:normal;">travaille sur le projet ?</tspan><tspan x="168.8125" y="62.30000228881545" textLength="0" style="fill:rgb(0, 0, 0);font-family:Arial;font-size:10pt;font-weight:normal;"></tspan></text></g><g transform="translate(181.00,237.50)" id="shape26"><path stroke="#000000" d="M0,0L730,0L730,69" fill="none"/><rect xmlns="http://www.w3.org/2000/svg" x="343.1608133098589" y="-8.799999988077616" width="29.36250114440918" height="17.600000381469727" fill="rgb(255, 255, 255)"/><text xmlns="http://www.w3.org/2000/svg" xml:space="preserve"><tspan x="343.1608133098589" y="5.200000011922384" textLength="29.36250114440918" style="fill:rgb(25, 25, 25);font-family:Arial;font-size:12pt;font-weight:normal;background-color:rgb(255, 255, 255);">Non</tspan></text></g><g transform="translate(889.15,393.02)" id="shape27"><path fill="#ffd78e" d="M24,29L48,14.5L24,0L0,14.5L24,29Z"/></g><g transform="translate(913.15,422.02)" id="shape28"><path stroke="#000000" d="M0,0L0,159.5L0.2,159.5L0.2,301.6" fill="none"/><rect xmlns="http://www.w3.org/2000/svg" x="-12.44999999999709" y="110.56722098089539" width="24.912500381469727" height="17.600000381469727" fill="rgb(255, 255, 255)"/><text xmlns="http://www.w3.org/2000/svg" xml:space="preserve"><tspan x="-12.44999999999709" y="124.56722098089539" textLength="24.912500381469727" style="fill:rgb(25, 25, 25);font-family:Arial;font-size:12pt;font-weight:normal;background-color:rgb(255, 255, 255);">Oui</tspan></text></g><g transform="translate(912.09,381.02)" id="shape29"><path stroke="#000000" d="M0,0L0,12" fill="none"/></g><g transform="translate(937.15,407.52)" id="shape30"><path stroke="#000000" d="M0,0L127,0L127,316" fill="none"/><rect xmlns="http://www.w3.org/2000/svg" x="40.85232138841291" y="-8.799999988077616" width="29.36250114440918" height="17.600000381469727" fill="rgb(255, 255, 255)"/><text xmlns="http://www.w3.org/2000/svg" xml:space="preserve"><tspan x="40.85232138841291" y="5.200000011922384" textLength="29.36250114440918" style="fill:rgb(25, 25, 25);font-family:Arial;font-size:12pt;font-weight:normal;background-color:rgb(255, 255, 255);">Non</tspan></text></g><g transform="translate(1000.42,723.64)" id="shape31"><path fill="#f4d0f2" d="M129,99.9L129,7.5C129,3.3,125.7,0,121.5,0L7.5,0C3.3,0,0,3.3,0,7.5L0,99.9C0,104.1,3.3,107.5,7.5,107.5L121.5,107.5C125.7,107.5,129,104.1,129,99.9Z"/><text xmlns="http://www.w3.org/2000/svg" xml:space="preserve"><tspan x="41.40916277480355" y="30.16000001191947" textLength="46.275002002716064" style="fill:rgb(25, 25, 25);font-family:Arial;font-size:12pt;font-weight:normal;">Projet </tspan><tspan x="23.421663537743" y="49.35999999999854" textLength="82.23750352859497" style="fill:rgb(25, 25, 25);font-family:Arial;font-size:12pt;font-weight:normal;">d'accompa-</tspan><tspan x="31.171663537743" y="68.56000076293799" textLength="66.73750400543213" style="fill:rgb(25, 25, 25);font-family:Arial;font-size:12pt;font-weight:normal;">gnement </tspan><tspan x="26.72166468215218" y="87.76000152587744" textLength="75.65000295639038" style="fill:rgb(25, 25, 25);font-family:Arial;font-size:12pt;font-weight:normal;">(** à venir)</tspan></text></g><g transform="translate(520.29,453.52)" id="shape32"><path fill="#aad3f5" d="M180,59.8L180,15.1C180,6.7,173.2,0,164.8,0L15.1,0C6.7,0,0,6.7,0,15.1L0,59.8C0,68.2,6.7,75,15.1,75L164.8,75C173.2,75,180,68.2,180,59.8Z"/><text xmlns="http://www.w3.org/2000/svg" xml:space="preserve"><tspan x="19.96250057220459" y="23.50000001191802" textLength="140.0750060081482" style="fill:rgb(7, 69, 114);font-family:Arial;font-size:12pt;font-weight:normal;">Est-ce que c'est un </tspan><tspan x="12.15000057220459" y="42.69999999999709" textLength="155.70000648498535" style="fill:rgb(7, 69, 114);font-family:Arial;font-size:12pt;font-weight:normal;">projet fast-track (hors </tspan><tspan x="61.07500076293945" y="61.90000076293654" textLength="57.83750295639038" style="fill:rgb(7, 69, 114);font-family:Arial;font-size:12pt;font-weight:normal;">voute) ?</tspan></text></g><g transform="translate(586.29,542.52)" id="shape33"><path fill="#ffd78e" d="M24,29L48,14.5L24,0L0,14.5L24,29Z"/></g><g transform="translate(610.29,571.52)" id="shape34"><path stroke="#000000" d="M0,0L0,152" fill="none"/><rect xmlns="http://www.w3.org/2000/svg" x="-12.44999999999709" y="67.20000001192238" width="24.912500381469727" height="17.600000381469727" fill="rgb(255, 255, 255)"/><text xmlns="http://www.w3.org/2000/svg" xml:space="preserve"><tspan x="-12.44999999999709" y="81.20000001192238" textLength="24.912500381469727" style="fill:rgb(25, 25, 25);font-family:Arial;font-size:12pt;font-weight:normal;background-color:rgb(255, 255, 255);">Oui</tspan></text></g><g transform="translate(634.29,557.02)" id="shape35"><path stroke="#000000" d="M0,0L127,0L127,166" fill="none"/><rect xmlns="http://www.w3.org/2000/svg" x="68.5535188819759" y="-8.799999988077616" width="29.36250114440918" height="17.600000381469727" fill="rgb(255, 255, 255)"/><text xmlns="http://www.w3.org/2000/svg" xml:space="preserve"><tspan x="68.5535188819759" y="5.200000011922384" textLength="29.36250114440918" style="fill:rgb(25, 25, 25);font-family:Arial;font-size:12pt;font-weight:normal;background-color:rgb(255, 255, 255);">Non</tspan></text></g><g transform="translate(545.75,723.64)" id="shape36"><path fill="#f4d0f2" d="M129,99.9L129,7.5C129,3.3,125.7,0,121.5,0L7.5,0C3.3,0,0,3.3,0,7.5L0,99.9C0,104.1,3.3,107.5,7.5,107.5L121.5,107.5C125.7,107.5,129,104.1,129,99.9Z"/><text xmlns="http://www.w3.org/2000/svg" xml:space="preserve"><tspan x="3.609163537743001" y="39.76000001191802" textLength="121.87500476837158" style="fill:rgb(25, 25, 25);font-family:Arial;font-size:12pt;font-weight:normal;">Projet Fast-track </tspan><tspan x="42.746664300682454" y="58.95999999999709" textLength="43.58750057220459" style="fill:rgb(25, 25, 25);font-family:Arial;font-size:12pt;font-weight:normal;">DGVI </tspan><tspan x="43.19666506362191" y="78.16000076293653" textLength="42.70000076293945" style="fill:rgb(25, 25, 25);font-family:Arial;font-size:12pt;font-weight:normal;">(SBX)</tspan></text></g><g transform="translate(179.92,557.02)" id="shape37"><path stroke="#000000" d="M0,0L127,0L127,23" fill="none"/><rect xmlns="http://www.w3.org/2000/svg" x="60.318749427794906" y="-8.799999988077616" width="29.36250114440918" height="17.600000381469727" fill="rgb(255, 255, 255)"/><text xmlns="http://www.w3.org/2000/svg" xml:space="preserve"><tspan x="60.318749427794906" y="5.200000011922384" textLength="29.36250114440918" style="fill:rgb(25, 25, 25);font-family:Arial;font-size:12pt;font-weight:normal;background-color:rgb(255, 255, 255);">Non</tspan></text></g><g transform="translate(610.29,528.52)" id="shape38"><path stroke="#000000" d="M0,0L0,14" fill="none"/></g></g></svg>