<svg xmlns="http://www.w3.org/2000/svg" width="1018" xmlns:xlink="http://www.w3.org/1999/xlink" viewBox="0 0 1018 486.374" height="486"><defs/><g transform="translate(1.00,1.00)" id="group1"><g transform="translate(-0.00,0.00)" id="shape2"><path fill="#ffffff" stroke="#7e7e7e" stroke-width="1" fill-rule="nonzero" d="M1004.1,484.4C1010.8,484.4,1016.1,479.0,1016.1,472.4L1016.1,12.0C1016.1,5.4,1010.8,.0,1004.1,.0L12.0,.0C5.4,.0,.0,5.4,.0,12.0L.0,472.4C.0,479.0,5.4,484.4,12.0,484.4L1004.1,484.4z"/><text xml:space="preserve" style="fill:#002060;font-family:Poppins;font-size:10.00pt;font-weight:bold"><tspan x="8.1" y="19.0">Sous-catégorie de structurant IC</tspan></text></g><g transform="translate(8.98,125.65)" id="group3"><g id="shape4"><path fill="#ffffff" stroke="#afafaf" stroke-width="0.6666669845581055" fill-rule="nonzero" d="M177.5,69.4C181.4,69.4,184.5,66.3,184.5,62.4L184.5,7.0C184.5,3.1,181.4,.0,177.5,.0L7.0,.0C3.1,.0,.0,3.1,.0,7.0L.0,62.4C.0,66.3,3.1,69.4,7.0,69.4L177.5,69.4z"/><text xml:space="preserve" style="fill:#696969;font-family:Poppins;font-size:10.00pt"><tspan x="58.8" y="26.7">Analyse &amp; </tspan><tspan x="39.8" y="49.7">prise de besoins</tspan></text></g><g transform="translate(156.00,49.12)" id="shape5"><text xml:space="preserve" style="fill:#bc8c1a;font-family:Poppins;font-size:7.00pt"><tspan x="6.8" y="12.5">100</tspan></text></g></g><g transform="translate(818.98,396.43)" id="group6"><g id="shape7"><path fill="#ffffff" stroke="#afafaf" stroke-width="0.6666669845581055" fill-rule="nonzero" d="M177.5,69.4C181.4,69.4,184.5,66.3,184.5,62.4L184.5,7.0C184.5,3.1,181.4,.0,177.5,.0L7.0,.0C3.1,.0,.0,3.1,.0,7.0L.0,62.4C.0,66.3,3.1,69.4,7.0,69.4L177.5,69.4z"/><text xml:space="preserve" style="fill:#696969;font-family:Poppins;font-size:10.00pt"><tspan x="59.3" y="38.2">Archivage</tspan></text></g><g transform="translate(156.00,49.12)" id="shape8"><text xml:space="preserve" style="fill:#bc8c1a;font-family:Poppins;font-size:7.00pt"><tspan x="5.3" y="12.2">990</tspan></text></g></g><g transform="translate(415.81,125.65)" id="group9"><g id="shape10"><path fill="#ffffff" stroke="#afafaf" stroke-width="0.6666669845581055" fill-rule="nonzero" d="M177.5,69.4C181.4,69.4,184.5,66.3,184.5,62.4L184.5,7.0C184.5,3.1,181.4,.0,177.5,.0L7.0,.0C3.1,.0,.0,3.1,.0,7.0L.0,62.4C.0,66.3,3.1,69.4,7.0,69.4L177.5,69.4z"/><text xml:space="preserve" style="fill:#696969;font-family:Poppins;font-size:10.00pt"><tspan x="26.8" y="38.2">Couche sémantique</tspan></text></g><g transform="translate(156.23,49.28)" id="shape11"><text xml:space="preserve" style="fill:#bc8c1a;font-family:Poppins;font-size:7.00pt"><tspan x="5.6" y="12.5">300</tspan></text></g></g><g transform="translate(7.79,37.82)" id="group12"><g id="shape13"><path fill="#ffffff" stroke="#afafaf" stroke-width="0.6666669845581055" fill-rule="nonzero" d="M177.5,69.4C181.4,69.4,184.5,66.3,184.5,62.4L184.5,7.0C184.5,3.1,181.4,.0,177.5,.0L7.0,.0C3.1,.0,.0,3.1,.0,7.0L.0,62.4C.0,66.3,3.1,69.4,7.0,69.4L177.5,69.4z"/><text xml:space="preserve" style="fill:#696969;font-family:Poppins;font-size:10.00pt"><tspan x="38.3" y="26.7">Concept, Argots </tspan><tspan x="56.3" y="49.7">&amp; définition</tspan></text></g><g transform="translate(156.00,49.12)" id="shape14"><text xml:space="preserve" style="fill:#bc8c1a;font-family:Poppins;font-size:7.00pt"><tspan x="5.3" y="12.2">000</tspan></text></g></g><g transform="translate(415.81,211.71)" id="group15"><g id="shape16"><path fill="#ffffff" stroke="#afafaf" stroke-width="0.6666669845581055" fill-rule="nonzero" d="M177.5,69.4C181.4,69.4,184.5,66.3,184.5,62.4L184.5,7.0C184.5,3.1,181.4,.0,177.5,.0L7.0,.0C3.1,.0,.0,3.1,.0,7.0L.0,62.4C.0,66.3,3.1,69.4,7.0,69.4L177.5,69.4z"/><text xml:space="preserve" style="fill:#696969;font-family:Poppins;font-size:10.00pt"><tspan x="65.8" y="38.2">Sécurité</tspan></text></g><g transform="translate(156.00,49.12)" id="shape17"><text xml:space="preserve" style="fill:#bc8c1a;font-family:Poppins;font-size:7.00pt"><tspan x="5.3" y="12.5">600</tspan></text></g></g><g transform="translate(9.63,211.71)" id="group18"><g id="shape19"><path fill="#ffffff" stroke="#afafaf" stroke-width="0.6666669845581055" fill-rule="nonzero" d="M177.5,69.4C181.4,69.4,184.5,66.3,184.5,62.4L184.5,7.0C184.5,3.1,181.4,.0,177.5,.0L7.0,.0C3.1,.0,.0,3.1,.0,7.0L.0,62.4C.0,66.3,3.1,69.4,7.0,69.4L177.5,69.4z"/><text xml:space="preserve" style="fill:#696969;font-family:Poppins;font-size:10.00pt"><tspan x="57.8" y="26.7">Rapport &amp; </tspan><tspan x="52.3" y="49.7">visualisation</tspan></text></g><g transform="translate(156.23,49.28)" id="shape20"><text xml:space="preserve" style="fill:#bc8c1a;font-family:Poppins;font-size:7.00pt"><tspan x="5.1" y="12.5">400</tspan></text></g></g><g transform="translate(9.63,297.77)" id="group21"><g id="shape22"><path fill="#ffffff" stroke="#afafaf" stroke-width="0.6666669845581055" fill-rule="nonzero" d="M175.8,69.4C179.6,69.4,182.8,66.3,182.8,62.4L182.8,7.0C182.8,3.1,179.6,.0,175.8,.0L7.0,.0C3.1,.0,.0,3.1,.0,7.0L.0,62.4C.0,66.3,3.1,69.4,7.0,69.4L175.8,69.4z"/><text xml:space="preserve" style="fill:#696969;font-family:Poppins;font-size:10.00pt"><tspan x="39.4" y="38.2">Service Power BI</tspan></text></g><g transform="translate(156.27,48.34)" id="shape23"><text xml:space="preserve" style="fill:#bc8c1a;font-family:Poppins;font-size:7.00pt"><tspan x="5.6" y="12.5">700</tspan></text></g></g><g transform="translate(616.48,396.43)" id="group24"><g id="shape25"><path fill="#ffffff" stroke="#afafaf" stroke-width="0.6666669845581055" fill-rule="nonzero" d="M177.5,69.4C181.4,69.4,184.5,66.3,184.5,62.4L184.5,7.0C184.5,3.1,181.4,.0,177.5,.0L7.0,.0C3.1,.0,.0,3.1,.0,7.0L.0,62.4C.0,66.3,3.1,69.4,7.0,69.4L177.5,69.4z"/><text xml:space="preserve" style="fill:#696969;font-family:Poppins;font-size:10.00pt"><tspan x="52.8" y="38.2">Certification</tspan></text></g><g transform="translate(156.23,49.28)" id="shape26"><text xml:space="preserve" style="fill:#bc8c1a;font-family:Poppins;font-size:7.00pt"><tspan x="5.1" y="12.5">980</tspan></text></g></g><g transform="translate(615.29,297.77)" id="group27"><g id="shape28"><path fill="#ffffff" stroke="#afafaf" stroke-width="0.6666669845581055" fill-rule="nonzero" d="M177.5,69.4C181.4,69.4,184.5,66.3,184.5,62.4L184.5,7.0C184.5,3.1,181.4,.0,177.5,.0L7.0,.0C3.1,.0,.0,3.1,.0,7.0L.0,62.4C.0,66.3,3.1,69.4,7.0,69.4L177.5,69.4z"/><text xml:space="preserve" style="fill:#696969;font-family:Poppins;font-size:10.00pt"><tspan x="30.8" y="26.7">Accompagnement </tspan><tspan x="67.8" y="49.7">affaires</tspan></text></g><g transform="translate(156.23,48.73)" id="shape29"><text xml:space="preserve" style="fill:#bc8c1a;font-family:Poppins;font-size:7.00pt"><tspan x="5.1" y="12.1">800</tspan></text></g></g><g transform="translate(212.07,211.71)" id="group30"><g id="shape31"><path fill="#ffffff" stroke="#afafaf" stroke-width="0.6666669845581055" fill-rule="nonzero" d="M177.5,69.4C181.4,69.4,184.5,66.3,184.5,62.4L184.5,7.0C184.5,3.1,181.4,.0,177.5,.0L7.0,.0C3.1,.0,.0,3.1,.0,7.0L.0,62.4C.0,66.3,3.1,69.4,7.0,69.4L177.5,69.4z"/><text xml:space="preserve" style="fill:#696969;font-family:Poppins;font-size:10.00pt"><tspan x="27.3" y="38.2">Essais et validations</tspan></text></g><g transform="translate(156.00,49.12)" id="shape32"><text xml:space="preserve" style="fill:#bc8c1a;font-family:Poppins;font-size:7.00pt"><tspan x="5.3" y="12.5">500</tspan></text></g></g><g transform="translate(9.63,396.43)" id="group33"><g id="shape34"><path fill="#ffffff" stroke="#afafaf" stroke-width="0.6666669845581055" fill-rule="nonzero" d="M177.5,69.4C181.4,69.4,184.5,66.3,184.5,62.4L184.5,7.0C184.5,3.1,181.4,.0,177.5,.0L7.0,.0C3.1,.0,.0,3.1,.0,7.0L.0,62.4C.0,66.3,3.1,69.4,7.0,69.4L177.5,69.4z"/><text xml:space="preserve" style="fill:#696969;font-family:Poppins;font-size:10.00pt"><tspan x="67.3" y="26.7">DevOps</tspan><tspan x="66.3" y="49.7">(Agilité)</tspan></text></g><g transform="translate(156.23,48.73)" id="shape35"><text xml:space="preserve" style="fill:#bc8c1a;font-family:Poppins;font-size:7.00pt"><tspan x="5.1" y="12.1">900</tspan></text></g><g transform="translate(180.97,68.52)" id="shape36"><path fill="none" stroke="#9b9b9b" stroke-width="1" d="M.0,.0L.1,.0L.1,-0.1"/><path stroke-linecap="round" fill="#9b9b9b" stroke-width="1" stroke="#9b9b9b" d="M.2,-0.1L-3.2,-2.1C-2.9,-1.5,-2.7,-0.9,-2.7,-0.1C-2.7,.6,-2.9,1.3,-3.2,1.9L.2,-0.1"/></g></g><g transform="translate(211.41,396.43)" id="group37"><g id="shape38"><path fill="#ffffff" stroke="#afafaf" stroke-width="0.6666669845581055" fill-rule="nonzero" d="M177.5,69.4C181.4,69.4,184.5,66.3,184.5,62.4L184.5,7.0C184.5,3.1,181.4,.0,177.5,.0L7.0,.0C3.1,.0,.0,3.1,.0,7.0L.0,62.4C.0,66.3,3.1,69.4,7.0,69.4L177.5,69.4z"/><text xml:space="preserve" style="fill:#696969;font-family:Poppins;font-size:10.00pt"><tspan x="51.3" y="38.2">Code source</tspan></text></g><g transform="translate(156.23,48.73)" id="shape39"><text xml:space="preserve" style="fill:#bc8c1a;font-family:Poppins;font-size:7.00pt"><tspan x="5.6" y="12.1">930</tspan></text></g></g><g transform="translate(415.81,396.43)" id="group40"><g id="shape41"><path fill="#ffffff" stroke="#afafaf" stroke-width="0.6666669845581055" fill-rule="nonzero" d="M177.5,69.4C181.4,69.4,184.5,66.3,184.5,62.4L184.5,7.0C184.5,3.1,181.4,.0,177.5,.0L7.0,.0C3.1,.0,.0,3.1,.0,7.0L.0,62.4C.0,66.3,3.1,69.4,7.0,69.4L177.5,69.4z"/><text xml:space="preserve" style="fill:#696969;font-family:Poppins;font-size:10.00pt"><tspan x="42.3" y="38.2">Documentation</tspan></text></g><g transform="translate(156.00,49.12)" id="shape42"><text xml:space="preserve" style="fill:#bc8c1a;font-family:Poppins;font-size:7.00pt"><tspan x="5.3" y="12.2">950</tspan></text></g></g><g transform="translate(817.79,297.77)" id="group43"><g transform="translate(4.91,0.00)" id="shape44"><path fill="#ffffff" stroke="#afafaf" stroke-width="0.6666669845581055" fill-rule="nonzero" d="M177.5,69.4C181.4,69.4,184.5,66.3,184.5,62.4L184.5,7.0C184.5,3.1,181.4,.0,177.5,.0L7.0,.0C3.1,.0,.0,3.1,.0,7.0L.0,62.4C.0,66.3,3.1,69.4,7.0,69.4L177.5,69.4z"/><text xml:space="preserve" style="fill:#696969;font-family:Poppins;font-size:10.00pt"><tspan x="49.8" y="38.2">Libre-Service</tspan></text></g><g transform="translate(156.23,48.73)" id="shape45"><text xml:space="preserve" style="fill:#bc8c1a;font-family:Poppins;font-size:7.00pt"><tspan x="5.1" y="12.1">850</tspan></text></g></g><g transform="translate(210.23,37.82)" id="group46"><g id="shape47"><path fill="#ffffff" stroke="#afafaf" stroke-width="0.6666669845581055" fill-rule="nonzero" d="M177.5,69.4C181.4,69.4,184.5,66.3,184.5,62.4L184.5,7.0C184.5,3.1,181.4,.0,177.5,.0L7.0,.0C3.1,.0,.0,3.1,.0,7.0L.0,62.4C.0,66.3,3.1,69.4,7.0,69.4L177.5,69.4z"/><text xml:space="preserve" style="fill:#696969;font-family:Poppins;font-size:10.00pt"><tspan x="46.3" y="38.2">Nomenclature</tspan></text></g><g transform="translate(156.00,49.12)" id="shape48"><text xml:space="preserve" style="fill:#bc8c1a;font-family:Poppins;font-size:7.00pt"><tspan x="5.3" y="12.5">050</tspan></text></g></g><g transform="translate(212.07,125.65)" id="group49"><g id="shape50"><path fill="#ffffff" stroke="#afafaf" stroke-width="0.6666669845581055" fill-rule="nonzero" d="M177.5,69.4C181.4,69.4,184.5,66.3,184.5,62.4L184.5,7.0C184.5,3.1,181.4,.0,177.5,.0L7.0,.0C3.1,.0,.0,3.1,.0,7.0L.0,62.4C.0,66.3,3.1,69.4,7.0,69.4L177.5,69.4z"/><text xml:space="preserve" style="fill:#696969;font-family:Poppins;font-size:10.00pt"><tspan x="49.8" y="38.2">Modélisation </tspan></text></g><g transform="translate(156.23,49.28)" id="shape51"><text xml:space="preserve" style="fill:#bc8c1a;font-family:Poppins;font-size:7.00pt"><tspan x="5.6" y="12.1">200</tspan></text></g></g><path transform="matrix(0.00,1.00,-1.00,0.00,608.1,132.4)" fill="none" stroke="#9b9b9b" stroke-width="0.3333329856395721" d="M.0,.0L231.9,.0" id="shape52"/><path transform="translate(13.07,382.43)" fill="none" stroke="#9b9b9b" stroke-width="0.3333329856395721" d="M.0,.0L979.8,.0" id="shape53"/><path transform="translate(12.88,116.37)" fill="none" stroke="#9b9b9b" stroke-width="0.3333329856395721" d="M.0,.0L979.8,.0" id="shape54"/><g transform="translate(822.00,37.82)" id="group55"><g id="shape56"><path fill="#ffffff" stroke="#afafaf" stroke-width="0.6666669845581055" fill-rule="nonzero" d="M177.5,69.4C181.4,69.4,184.5,66.3,184.5,62.4L184.5,7.0C184.5,3.1,181.4,.0,177.5,.0L7.0,.0C3.1,.0,.0,3.1,.0,7.0L.0,62.4C.0,66.3,3.1,69.4,7.0,69.4L177.5,69.4z"/><text xml:space="preserve" style="fill:#696969;font-family:Poppins;font-size:10.00pt"><tspan x="44.8" y="38.2">Administration</tspan></text></g><g transform="translate(156.00,49.12)" id="shape57"><text xml:space="preserve" style="fill:#bc8c1a;font-family:Poppins;font-size:7.00pt"><tspan x="5.3" y="12.2">090</tspan></text></g></g></g></svg>