<svg height="300" width="1018" xmlns="http://www.w3.org/2000/svg" viewBox="0 0 1018 300.374" xmlns:xlink="http://www.w3.org/1999/xlink"><defs/><g transform="translate(1.00,1.00)" id="group1"><g transform="translate(0.00,0.00)" id="shape2"><path stroke="#7e7e7e" stroke-width="1" fill="#ffffff" d="M1004.1,298.4C1010.8,298.4,1016.1,293.0,1016.1,286.4L1016.1,12.0C1016.1,5.4,1010.8,.0,1004.1,.0L12.0,.0C5.4,.0,.0,5.4,.0,12.0L.0,286.4C.0,293.0,5.4,298.4,12.0,298.4L1004.1,298.4z" fill-rule="nonzero"/><text xml:space="preserve" style="fill:#002060;font-family:Poppins;font-size:10.00pt;font-weight:bold"><tspan x="8.1" y="19.0">Sous-catégorie de Formation</tspan></text></g><g transform="translate(9.63,211.26)" id="group3"><g transform="translate(0.00,-0.00)" id="shape4"><path stroke="#afafaf" stroke-width="0.6666669845581055" fill="#ffffff" d="M177.5,69.4C181.4,69.4,184.5,66.3,184.5,62.4L184.5,7.0C184.5,3.1,181.4,.0,177.5,.0L7.0,.0C3.1,.0,.0,3.1,.0,7.0L.0,62.4C.0,66.3,3.1,69.4,7.0,69.4L177.5,69.4z" fill-rule="nonzero"/><text xml:space="preserve" style="fill:#696969;font-family:Poppins;font-size:10.00pt"><tspan x="46.3" y="26.7">Nomenclature</tspan><tspan x="42.3" y="49.7">Documentation</tspan></text></g><g transform="translate(141.00,36.96)" id="shape5"><text xml:space="preserve" style="fill:#bc8c1a;font-family:Poppins;font-size:7.00pt"><tspan x="16.3" y="22.2">2000</tspan></text></g></g><g transform="translate(212.07,211.10)" id="group6"><g transform="translate(0.00,0.00)" id="shape7"><path stroke="#afafaf" stroke-width="0.6666669845581055" fill="#ffffff" d="M177.5,69.4C181.4,69.4,184.5,66.3,184.5,62.4L184.5,7.0C184.5,3.1,181.4,.0,177.5,.0L7.0,.0C3.1,.0,.0,3.1,.0,7.0L.0,62.4C.0,66.3,3.1,69.4,7.0,69.4L177.5,69.4z" fill-rule="nonzero"/><text xml:space="preserve" style="fill:#696969;font-family:Poppins;font-size:10.00pt"><tspan x="58.3" y="38.2">Markdown</tspan></text></g><g transform="translate(141.00,37.61)" id="shape8"><text xml:space="preserve" style="fill:#bc8c1a;font-family:Poppins;font-size:7.00pt"><tspan x="19.3" y="22.2">2100</tspan></text></g></g><g transform="translate(415.82,211.26)" id="group9"><g transform="translate(0.00,-0.00)" id="shape10"><path stroke="#afafaf" stroke-width="0.6666669845581055" fill="#ffffff" d="M177.5,69.4C181.4,69.4,184.5,66.3,184.5,62.4L184.5,7.0C184.5,3.1,181.4,.0,177.5,.0L7.0,.0C3.1,.0,.0,3.1,.0,7.0L.0,62.4C.0,66.3,3.1,69.4,7.0,69.4L177.5,69.4z" fill-rule="nonzero"/><text xml:space="preserve" style="fill:#696969;font-family:Poppins;font-size:10.00pt"><tspan x="76.3" y="26.7">Outil </tspan><tspan x="69.8" y="49.7">Typora</tspan></text></g><g transform="translate(141.00,36.96)" id="shape11"><text xml:space="preserve" style="fill:#bc8c1a;font-family:Poppins;font-size:7.00pt"><tspan x="20.3" y="18.5">2120</tspan></text></g></g><g transform="translate(618.02,211.10)" id="group12"><g transform="translate(0.00,0.00)" id="shape13"><path stroke="#afafaf" stroke-width="0.6666669845581055" fill="#ffffff" d="M177.5,69.4C181.4,69.4,184.5,66.3,184.5,62.4L184.5,7.0C184.5,3.1,181.4,.0,177.5,.0L7.0,.0C3.1,.0,.0,3.1,.0,7.0L.0,62.4C.0,66.3,3.1,69.4,7.0,69.4L177.5,69.4z" fill-rule="nonzero"/><text xml:space="preserve" style="fill:#696969;font-family:Poppins;font-size:10.00pt"><tspan x="77.8" y="26.7">Outil</tspan><tspan x="53.8" y="49.7">Docusaurus</tspan></text></g><g transform="translate(141.00,37.61)" id="shape14"><text xml:space="preserve" style="fill:#bc8c1a;font-family:Poppins;font-size:7.00pt"><tspan x="19.3" y="23.0">2140</tspan></text></g></g><g transform="translate(9.63,123.10)" id="group15"><g transform="translate(0.00,-0.00)" id="shape16"><path stroke="#afafaf" stroke-width="0.6666669845581055" fill="#ffffff" d="M177.5,69.4C181.4,69.4,184.5,66.3,184.5,62.4L184.5,7.0C184.5,3.1,181.4,.0,177.5,.0L7.0,.0C3.1,.0,.0,3.1,.0,7.0L.0,62.4C.0,66.3,3.1,69.4,7.0,69.4L177.5,69.4z" fill-rule="nonzero"/><text xml:space="preserve" style="fill:#696969;font-family:Poppins;font-size:10.00pt"><tspan x="79.3" y="38.2">DAX</tspan></text></g><g transform="translate(141.00,37.28)" id="shape17"><text xml:space="preserve" style="fill:#bc8c1a;font-family:Poppins;font-size:7.00pt"><tspan x="19.3" y="22.2">1300</tspan></text></g></g><g transform="translate(820.81,37.82)" id="group18"><g transform="translate(0.00,-0.00)" id="shape19"><path stroke="#afafaf" stroke-width="0.6666669845581055" fill="#ffffff" d="M177.5,69.4C181.4,69.4,184.5,66.3,184.5,62.4L184.5,7.0C184.5,3.1,181.4,.0,177.5,.0L7.0,.0C3.1,.0,.0,3.1,.0,7.0L.0,62.4C.0,66.3,3.1,69.4,7.0,69.4L177.5,69.4z" fill-rule="nonzero"/><text xml:space="preserve" style="fill:#696969;font-family:Poppins;font-size:10.00pt"><tspan x="51.8" y="38.2">Power Query</tspan></text></g><g transform="translate(141.00,37.28)" id="shape20"><text xml:space="preserve" style="fill:#bc8c1a;font-family:Poppins;font-size:7.00pt"><tspan x="11.8" y="18.1">1200</tspan></text></g></g><g transform="translate(618.02,37.82)" id="group21"><g transform="translate(0.00,-0.00)" id="shape22"><path stroke="#afafaf" stroke-width="0.6666669845581055" fill="#ffffff" d="M177.5,69.4C181.4,69.4,184.5,66.3,184.5,62.4L184.5,7.0C184.5,3.1,181.4,.0,177.5,.0L7.0,.0C3.1,.0,.0,3.1,.0,7.0L.0,62.4C.0,66.3,3.1,69.4,7.0,69.4L177.5,69.4z" fill-rule="nonzero"/><text xml:space="preserve" style="fill:#696969;font-family:Poppins;font-size:10.00pt"><tspan x="43.3" y="26.7">Modélisation &amp; </tspan><tspan x="26.8" y="49.7">Couche sémantique</tspan></text></g><g transform="translate(141.00,37.28)" id="shape23"><text xml:space="preserve" style="fill:#bc8c1a;font-family:Poppins;font-size:7.00pt"><tspan x="21.3" y="22.2">1100</tspan></text></g></g><g transform="translate(9.63,37.82)" id="group24"><g transform="translate(0.00,0.00)" id="shape25"><path stroke="#afafaf" stroke-width="0.6666669845581055" fill="#ffffff" d="M177.5,69.4C181.4,69.4,184.5,66.3,184.5,62.4L184.5,7.0C184.5,3.1,181.4,.0,177.5,.0L7.0,.0C3.1,.0,.0,3.1,.0,7.0L.0,62.4C.0,66.3,3.1,69.4,7.0,69.4L177.5,69.4z" fill-rule="nonzero"/><text xml:space="preserve" style="fill:#696969;font-family:Poppins;font-size:10.00pt"><tspan x="66.8" y="38.2">Analyse</tspan></text></g><g transform="translate(141.00,37.28)" id="shape26"><text xml:space="preserve" style="fill:#bc8c1a;font-family:Poppins;font-size:7.00pt"><tspan x="18.3" y="22.2">1000</tspan></text></g></g><g transform="translate(213.25,37.82)" id="group27"><g transform="translate(0.00,0.00)" id="shape28"><path stroke="#afafaf" stroke-width="0.6666669845581055" fill="#ffffff" d="M177.5,69.4C181.4,69.4,184.5,66.3,184.5,62.4L184.5,7.0C184.5,3.1,181.4,.0,177.5,.0L7.0,.0C3.1,.0,.0,3.1,.0,7.0L.0,62.4C.0,66.3,3.1,69.4,7.0,69.4L177.5,69.4z" fill-rule="nonzero"/><text xml:space="preserve" style="fill:#696969;font-family:Poppins;font-size:10.00pt"><tspan x="37.3" y="38.2">Power BI Desktop</tspan></text></g><g transform="translate(141.00,37.28)" id="shape29"><text xml:space="preserve" style="fill:#bc8c1a;font-family:Poppins;font-size:7.00pt"><tspan x="18.3" y="22.2">1000</tspan></text></g></g><g transform="translate(415.82,37.82)" id="group30"><g transform="translate(0.00,-0.00)" id="shape31"><path stroke="#afafaf" stroke-width="0.6666669845581055" fill="#ffffff" d="M177.5,69.4C181.4,69.4,184.5,66.3,184.5,62.4L184.5,7.0C184.5,3.1,181.4,.0,177.5,.0L7.0,.0C3.1,.0,.0,3.1,.0,7.0L.0,62.4C.0,66.3,3.1,69.4,7.0,69.4L177.5,69.4z" fill-rule="nonzero"/><text xml:space="preserve" style="fill:#696969;font-family:Poppins;font-size:10.00pt"><tspan x="65.3" y="26.7">Power BI</tspan><tspan x="39.3" y="49.7">Thème / Gabarit</tspan></text></g><g transform="translate(141.00,37.28)" id="shape32"><text xml:space="preserve" style="fill:#bc8c1a;font-family:Poppins;font-size:7.00pt"><tspan x="18.3" y="22.2">1050</tspan></text></g></g><g transform="translate(618.02,123.10)" id="group33"><g transform="translate(0.00,-0.00)" id="shape34"><path stroke="#afafaf" stroke-width="0.6666669845581055" fill="#ffffff" d="M177.5,69.4C181.4,69.4,184.5,66.3,184.5,62.4L184.5,7.0C184.5,3.1,181.4,.0,177.5,.0L7.0,.0C3.1,.0,.0,3.1,.0,7.0L.0,62.4C.0,66.3,3.1,69.4,7.0,69.4L177.5,69.4z" fill-rule="nonzero"/><text xml:space="preserve" style="fill:#696969;font-family:Poppins;font-size:10.00pt"><tspan x="40.3" y="26.7">Service Power BI</tspan><tspan x="59.8" y="49.7">Utilisateur</tspan></text></g><g transform="translate(141.00,36.54)" id="shape35"><text xml:space="preserve" style="fill:#bc8c1a;font-family:Poppins;font-size:7.00pt"><tspan x="18.3" y="22.2">1600</tspan></text></g></g><g transform="translate(415.82,123.10)" id="group36"><g transform="translate(0.00,-0.00)" id="shape37"><path stroke="#afafaf" stroke-width="0.6666669845581055" fill="#ffffff" d="M177.5,69.4C181.4,69.4,184.5,66.3,184.5,62.4L184.5,7.0C184.5,3.1,181.4,.0,177.5,.0L7.0,.0C3.1,.0,.0,3.1,.0,7.0L.0,62.4C.0,66.3,3.1,69.4,7.0,69.4L177.5,69.4z" fill-rule="nonzero"/><text xml:space="preserve" style="fill:#696969;font-family:Poppins;font-size:10.00pt"><tspan x="65.3" y="26.7">Power BI</tspan><tspan x="57.3" y="49.7">Intéraction</tspan></text></g><g transform="translate(141.00,37.28)" id="shape38"><text xml:space="preserve" style="fill:#bc8c1a;font-family:Poppins;font-size:7.00pt"><tspan x="18.3" y="22.2">1500</tspan></text></g></g><g transform="translate(213.25,123.10)" id="group39"><g transform="translate(0.00,-0.00)" id="shape40"><path stroke="#afafaf" stroke-width="0.6666669845581055" fill="#ffffff" d="M177.5,69.4C181.4,69.4,184.5,66.3,184.5,62.4L184.5,7.0C184.5,3.1,181.4,.0,177.5,.0L7.0,.0C3.1,.0,.0,3.1,.0,7.0L.0,62.4C.0,66.3,3.1,69.4,7.0,69.4L177.5,69.4z" fill-rule="nonzero"/><text xml:space="preserve" style="fill:#696969;font-family:Poppins;font-size:10.00pt"><tspan x="65.3" y="26.7">Power BI</tspan><tspan x="51.3" y="49.7">Visualisation</tspan></text></g><g transform="translate(141.00,37.28)" id="shape41"><text xml:space="preserve" style="fill:#bc8c1a;font-family:Poppins;font-size:7.00pt"><tspan x="18.3" y="18.1">1400</tspan></text></g></g></g></svg>