<svg xmlns="http://www.w3.org/2000/svg" viewBox="0 0 868 523.251" height="523" xmlns:xlink="http://www.w3.org/1999/xlink" width="868"><defs/><g transform="translate(1.00,1.00)" id="group1"><g id="shape2"><path fill="#ffffff" fill-rule="nonzero" stroke-width="0.6666669845581055" d="M854.0,400.5C860.6,400.5,866.0,395.1,866.0,388.5L866.0,12.0C866.0,5.4,860.6,.0,854.0,.0L12.0,.0C5.4,.0,.0,5.4,.0,12.0L.0,388.5C.0,395.1,5.4,400.5,12.0,400.5L854.0,400.5z" stroke="#002060"/><text xml:space="preserve" style="fill:#002060;font-family:Poppins;font-size:10.00pt;font-weight:bold"><tspan x="8.0" y="19.0">Architecture IC</tspan></text></g><g transform="translate(329.25,105.25)" id="shape3"><path fill="#ffffff" fill-rule="nonzero" stroke-width="1" d="M154.0,140.0C160.6,140.0,166.0,134.6,166.0,128.0L166.0,12.0C166.0,5.4,160.6,.0,154.0,.0L12.0,.0C5.4,.0,.0,5.4,.0,12.0L.0,128.0C.0,134.6,5.4,140.0,12.0,140.0L154.0,140.0z" stroke="#002060"/><text xml:space="preserve" style="fill:#002060;font-family:Poppins;font-size:10.00pt;font-weight:bold"><tspan x="56.5" y="73.5">Normes</tspan></text></g><g transform="translate(148.25,105.25)" id="shape4"><path fill="#ffffff" fill-rule="nonzero" stroke-width="1" d="M157.0,140.0C162.0,140.0,166.0,136.0,166.0,131.0L166.0,9.0C166.0,4.0,162.0,.0,157.0,.0L9.0,.0C4.0,.0,.0,4.0,.0,9.0L.0,131.0C.0,136.0,4.0,140.0,9.0,140.0L157.0,140.0z" stroke="#002060"/><text xml:space="preserve" style="fill:#002060;font-family:Poppins;font-size:10.00pt;font-weight:bold"><tspan x="49.0" y="73.5">Processus</tspan></text></g><path fill="none" transform="translate(0.00,440.09)" stroke-width="0.6666669845581055" d="M866.0,74.2L866.0,7.0C866.0,3.1,862.9,.0,859.0,.0L7.0,.0C3.1,.0,.0,3.1,.0,7.0L.0,74.2C.0,78.0,3.1,81.2,7.0,81.2L859.0,81.2C862.9,81.2,866.0,78.0,866.0,74.2z" id="shape5" stroke="#d8d8d8"/><g transform="translate(20.19,419.25)" id="group6"><path fill="#ffffff" transform="translate(0.80,0.98)" fill-rule="nonzero" stroke-width="1.333330035209656" d="M18.0,36.0L61.7,36.0L61.7,36.0C71.6,36.0,79.7,27.9,79.7,18.0C79.7,8.0,71.6,.0,61.7,.0L18.0,.0L18.0,.0C8.0,.0,.0,8.0,.0,18.0C.0,27.9,8.0,36.0,18.0,36.0z" id="shape7" stroke="#ebebeb"/><path fill="#ffffff" fill-rule="nonzero" d="M82.1,21.0L82.1,.0L.0,.0L.0,21.0L82.1,21.0z" id="shape8"/><g transform="translate(13.11,11.96)" id="shape9"><text xml:space="preserve" style="fill:#afafaf;font-family:Corbel;font-size:8.00pt"><tspan x="8.0" y="15.0">Légende</tspan></text></g></g><g transform="translate(148.75,469.25)" id="shape10"><path fill="#ffffff" fill-rule="nonzero" stroke-width="0.6666669845581055" d="M157.5,36.9C162.2,36.9,166.0,33.1,166.0,28.4L166.0,8.5C166.0,3.8,162.2,.0,157.5,.0L8.5,.0C3.8,.0,.0,3.8,.0,8.5L.0,28.4C.0,33.1,3.8,36.9,8.5,36.9L157.5,36.9z" stroke="#002060"/><text xml:space="preserve" style="fill:#002060;font-family:Poppins;font-size:8.00pt"><tspan x="11.0" y="21.0">Documents d'architecture</tspan></text></g><g transform="translate(329.25,469.25)" id="shape11"><path fill="#ffffff" fill-rule="nonzero" stroke-width="0.6666669845581055" d="M154.0,36.9C160.6,36.9,166.0,31.6,166.0,24.9L166.0,12.0C166.0,5.4,160.6,.0,154.0,.0L12.0,.0C5.4,.0,.0,5.4,.0,12.0L.0,24.9C.0,31.6,5.4,36.9,12.0,36.9L154.0,36.9z" stroke="#4274bf"/><text xml:space="preserve" style="fill:#4274bf;font-family:Poppins;font-size:8.00pt"><tspan x="29.0" y="11.5">Matériel de  soutien </tspan><tspan x="54.0" y="30.5">réalisation</tspan></text></g><g transform="translate(509.25,469.25)" id="shape12"><path fill="#ffffff" fill-rule="nonzero" stroke-width="0.6666669845581055" d="M154.0,40.0C160.6,40.0,166.0,34.6,166.0,28.0L166.0,12.0C166.0,5.4,160.6,.0,154.0,.0L12.0,.0C5.4,.0,.0,5.4,.0,12.0L.0,28.0C.0,34.6,5.4,40.0,12.0,40.0L154.0,40.0z" stroke="#bc8c1a"/><text xml:space="preserve" style="fill:#bc8c1a;font-family:Poppins;font-size:8.00pt"><tspan x="18.5" y="13.0">Documents d'opération </tspan><tspan x="69.5" y="32.0">DGVI</tspan></text></g><g transform="translate(688.75,469.25)" id="shape13"><path fill="#ffffff" fill-rule="nonzero" stroke-width="0.6666669845581055" d="M154.0,36.9C160.6,36.9,166.0,31.6,166.0,24.9L166.0,12.0C166.0,5.4,160.6,.0,154.0,.0L12.0,.0C5.4,.0,.0,5.4,.0,12.0L.0,24.9C.0,31.6,5.4,36.9,12.0,36.9L154.0,36.9z" stroke="#7030a0"/><text xml:space="preserve" style="fill:#7030a0;font-family:Poppins;font-size:8.00pt"><tspan x="24.0" y="21.0">Marétiel de formation</tspan></text></g><g transform="translate(17.25,469.25)" id="shape14"><path fill="#ffffff" fill-rule="nonzero" stroke-width="0.6666669845581055" d="M104.0,36.9C110.6,36.9,116.0,31.6,116.0,24.9L116.0,12.0C116.0,5.4,110.6,.0,104.0,.0L12.0,.0C5.4,.0,.0,5.4,.0,12.0L.0,24.9C.0,31.6,5.4,36.9,12.0,36.9L104.0,36.9z" stroke="#9b9b9b"/><text xml:space="preserve" style="fill:#696969;font-family:Poppins;font-size:8.00pt"><tspan x="17.5" y="11.5">Documents de </tspan><tspan x="37.5" y="30.5">gestion</tspan></text></g><g transform="translate(149.25,324.25)" id="group15"><g id="shape16"><path fill="#ffffff" fill-rule="nonzero" stroke-width="1" d="M158.0,55.5C162.4,55.5,166.0,51.9,166.0,47.5L166.0,8.0C166.0,3.6,162.4,.0,158.0,.0L8.0,.0C3.6,.0,.0,3.6,.0,8.0L.0,47.5C.0,51.9,3.6,55.5,8.0,55.5L158.0,55.5z" stroke="#bc8c1a"/><text xml:space="preserve" style="fill:#bc8c1a;font-family:Poppins;font-size:10.00pt;font-weight:bold"><tspan x="23.5" y="19.8">Configuration du </tspan><tspan x="46.5" y="42.8">service PBI</tspan></text></g><g transform="translate(146.00,38.00)" id="shape17"><text xml:space="preserve" style="fill:#bc8c1a;font-family:Poppins;font-size:7.00pt"><tspan x="4.0" y="10.8">70</tspan></text></g></g><g transform="translate(329.25,324.25)" id="group18"><g id="shape19"><path fill="#ffffff" fill-rule="nonzero" stroke-width="1" d="M154.0,55.5C160.6,55.5,166.0,50.1,166.0,43.5L166.0,12.0C166.0,5.4,160.6,.0,154.0,.0L12.0,.0C5.4,.0,.0,5.4,.0,12.0L.0,43.5C.0,50.1,5.4,55.5,12.0,55.5L154.0,55.5z" stroke="#bc8c1a"/><text xml:space="preserve" style="fill:#bc8c1a;font-family:Poppins;font-size:10.00pt;font-weight:bold"><tspan x="55.0" y="31.3">Sécurité</tspan></text></g><g transform="translate(147.00,38.00)" id="shape20"><text xml:space="preserve" style="fill:#bc8c1a;font-family:Poppins;font-size:7.00pt"><tspan x="5.5" y="10.8">71</tspan></text></g></g><g transform="translate(296.25,227.75)" id="shape21"><text xml:space="preserve" style="fill:#002060;font-family:Poppins;font-size:7.00pt"><tspan x="4.0" y="10.8">20</tspan></text></g><g transform="translate(476.25,227.75)" id="shape22"><text xml:space="preserve" style="fill:#002060;font-family:Poppins;font-size:7.00pt"><tspan x="4.0" y="10.8">30</tspan></text></g><g transform="translate(509.25,105.25)" id="group23"><g id="shape24"><path fill="#ffffff" fill-rule="nonzero" stroke-width="1" d="M154.0,140.0C160.6,140.0,166.0,134.6,166.0,128.0L166.0,12.0C166.0,5.4,160.6,.0,154.0,.0L12.0,.0C5.4,.0,.0,5.4,.0,12.0L.0,128.0C.0,134.6,5.4,140.0,12.0,140.0L154.0,140.0z" stroke="#002060"/><text xml:space="preserve" style="fill:#002060;font-family:Poppins;font-size:10.00pt;font-weight:bold"><tspan x="50.5" y="73.5">Pratiques</tspan></text></g><g transform="translate(147.00,122.50)" id="shape25"><text xml:space="preserve" style="fill:#002060;font-family:Poppins;font-size:7.00pt"><tspan x="3.5" y="11.0">40</tspan></text></g></g><g transform="translate(149.25,36.25)" id="group26"><g id="shape27"><path fill="#ffffff" fill-rule="nonzero" stroke-width="1" d="M514.0,56.0C520.6,56.0,526.0,50.6,526.0,44.0L526.0,12.0C526.0,5.4,520.6,.0,514.0,.0L12.0,.0C5.4,.0,.0,5.4,.0,12.0L.0,44.0C.0,50.6,5.4,56.0,12.0,56.0L514.0,56.0z" stroke="#002060"/><text xml:space="preserve" style="fill:#002060;font-family:Poppins;font-size:10.00pt;font-weight:bold"><tspan x="244.0" y="20.0">Argot</tspan><tspan x="187.0" y="43.0">Concepts &amp; définitions</tspan></text></g><g transform="translate(507.00,38.50)" id="shape28"><text xml:space="preserve" style="fill:#002060;font-family:Poppins;font-size:7.00pt"><tspan x="5.0" y="11.0">10</tspan></text></g></g><g transform="translate(689.25,105.25)" id="group29"><g id="shape30"><path fill="#ffffff" fill-rule="nonzero" stroke-width="1.333330035209656" d="M154.0,140.0C160.6,140.0,166.0,134.6,166.0,128.0L166.0,12.0C166.0,5.4,160.6,.0,154.0,.0L12.0,.0C5.4,.0,.0,5.4,.0,12.0L.0,128.0C.0,134.6,5.4,140.0,12.0,140.0L154.0,140.0z" stroke="#7030a0"/><text xml:space="preserve" style="fill:#7030a0;font-family:Poppins;font-size:10.00pt;font-weight:bold"><tspan x="44.5" y="73.5">Formations</tspan></text></g><g transform="translate(146.50,122.50)" id="shape31"><text xml:space="preserve" style="fill:#7030a0;font-family:Poppins;font-size:7.00pt"><tspan x="3.5" y="10.8">80</tspan></text></g></g><g transform="translate(688.75,256.58)" id="group32"><g id="shape33"><path fill="#ffffff" fill-rule="nonzero" stroke-width="1.333330035209656" d="M154.0,55.5C160.6,55.5,166.0,50.1,166.0,43.5L166.0,12.0C166.0,5.4,160.6,.0,154.0,.0L12.0,.0C5.4,.0,.0,5.4,.0,12.0L.0,43.5C.0,50.1,5.4,55.5,12.0,55.5L154.0,55.5z" stroke="#7030a0"/><text xml:space="preserve" style="fill:#7030a0;font-family:Poppins;font-size:10.00pt;font-weight:bold"><tspan x="29.5" y="31.3">Trucs &amp; astuces</tspan></text></g><g transform="translate(147.00,38.00)" id="shape34"><text xml:space="preserve" style="fill:#7030a0;font-family:Poppins;font-size:7.00pt"><tspan x="3.5" y="10.8">88</tspan></text></g></g><g transform="translate(689.25,324.25)" id="group35"><g id="shape36"><path fill="#ffffff" fill-rule="nonzero" stroke-width="1.333330035209656" d="M154.0,55.5C160.6,55.5,166.0,50.1,166.0,43.5L166.0,12.0C166.0,5.4,160.6,.0,154.0,.0L12.0,.0C5.4,.0,.0,5.4,.0,12.0L.0,43.5C.0,50.1,5.4,55.5,12.0,55.5L154.0,55.5z" stroke="#7030a0"/><text xml:space="preserve" style="fill:#7030a0;font-family:Poppins;font-size:8.00pt;font-weight:bold"><tspan x="9.0" style="font-size:10.00pt" y="21.8">Partage &amp; publication</tspan><tspan x="27.0" y="41.8">(Formations &amp; Wiki)</tspan></text></g><g transform="translate(146.50,38.00)" id="shape37"><text xml:space="preserve" style="fill:#7030a0;font-family:Poppins;font-size:7.00pt"><tspan x="3.5" y="10.8">89</tspan></text></g></g><g transform="translate(509.25,324.25)" id="group38"><g id="shape39"><path fill="#ffffff" fill-rule="nonzero" stroke-width="1" d="M154.0,55.5C160.6,55.5,166.0,50.1,166.0,43.5L166.0,12.0C166.0,5.4,160.6,.0,154.0,.0L12.0,.0C5.4,.0,.0,5.4,.0,12.0L.0,43.5C.0,50.1,5.4,55.5,12.0,55.5L154.0,55.5z" stroke="#bc8c1a"/><text xml:space="preserve" style="fill:#bc8c1a;font-family:Poppins;font-size:10.00pt;font-weight:bold"><tspan x="32.5" y="31.3">Suivi des actifs</tspan></text></g><g id="group40"><g transform="translate(147.00,38.00)" id="shape41"><text xml:space="preserve" style="fill:#bc8c1a;font-family:Poppins;font-size:7.00pt"><tspan x="4.0" y="10.8">79</tspan></text></g></g></g><g transform="translate(148.25,256.58)" id="group42"><g id="shape43"><path fill="#ffffff" fill-rule="nonzero" stroke-width="1" d="M154.0,55.5C160.6,55.5,166.0,50.1,166.0,43.5L166.0,12.0C166.0,5.4,160.6,.0,154.0,.0L12.0,.0C5.4,.0,.0,5.4,.0,12.0L.0,43.5C.0,50.1,5.4,55.5,12.0,55.5L154.0,55.5z" stroke="#4274bf"/><text xml:space="preserve" style="fill:#4274bf;font-family:Poppins;font-size:10.00pt;font-weight:bold"><tspan x="53.5" y="31.3">Gabarits</tspan></text></g><g transform="translate(147.00,38.00)" id="shape44"><text xml:space="preserve" style="fill:#4274bf;font-family:Poppins;font-size:7.00pt"><tspan x="3.5" y="11.0">50</tspan></text></g></g><g transform="translate(17.25,36.25)" id="group45"><g id="shape46"><path fill="#ffffff" fill-rule="nonzero" stroke-width="1.333330035209656" d="M104.0,343.5C110.6,343.5,116.0,338.1,116.0,331.5L116.0,12.0C116.0,5.4,110.6,.0,104.0,.0L12.0,.0C5.4,.0,.0,5.4,.0,12.0L.0,331.5C.0,338.1,5.4,343.5,12.0,343.5L104.0,343.5z" stroke="#9b9b9b"/><text xml:space="preserve" style="fill:#696969;font-family:Poppins;font-size:10.00pt;font-weight:bold"><tspan x="12.0" y="163.8">Organisation </tspan><tspan x="25.0" y="186.8">du travail</tspan></text></g><g transform="translate(97.00,326.00)" id="shape47"><text xml:space="preserve" style="fill:#696969;font-family:Poppins;font-size:7.00pt"><tspan x="3.5" y="10.8">00</tspan></text></g></g><g transform="translate(329.25,256.58)" id="group48"><g id="shape49"><path fill="#ffffff" fill-rule="nonzero" stroke-width="1" d="M154.0,55.5C160.6,55.5,166.0,50.1,166.0,43.5L166.0,12.0C166.0,5.4,160.6,.0,154.0,.0L12.0,.0C5.4,.0,.0,5.4,.0,12.0L.0,43.5C.0,50.1,5.4,55.5,12.0,55.5L154.0,55.5z" stroke="#4274bf"/><text xml:space="preserve" style="fill:#4274bf;font-family:Poppins;font-size:10.00pt;font-weight:bold"><tspan x="31.5" y="19.8">Guides &amp; aides </tspan><tspan x="31.0" y="42.8">à la réalisation </tspan></text></g><g transform="translate(147.00,38.00)" id="shape50"><text xml:space="preserve" style="fill:#4274bf;font-family:Poppins;font-size:7.00pt"><tspan x="3.5" y="11.0">60</tspan></text></g></g><g transform="translate(689.25,36.75)" id="group51"><g id="shape52"><path fill="#ffffff" fill-rule="nonzero" stroke-width="1.333330035209656" d="M154.0,55.5C160.6,55.5,166.0,50.1,166.0,43.5L166.0,12.0C166.0,5.4,160.6,.0,154.0,.0L12.0,.0C5.4,.0,.0,5.4,.0,12.0L.0,43.5C.0,50.1,5.4,55.5,12.0,55.5L154.0,55.5z" stroke="#7030a0"/><text xml:space="preserve" style="fill:#7030a0;font-family:Poppins;font-size:10.00pt;font-weight:bold"><tspan x="19.0" y="19.8">Accompagnement </tspan><tspan x="56.5" y="42.8">affaires</tspan></text></g><g transform="translate(147.00,38.00)" id="shape53"><text xml:space="preserve" style="fill:#7030a0;font-family:Poppins;font-size:7.00pt"><tspan x="3.5" y="11.0">90</tspan></text></g></g></g></svg>