<svg xmlns="http://www.w3.org/2000/svg" viewBox="0 0 866 478" height="478" xmlns:xlink="http://www.w3.org/1999/xlink" width="866"><defs/><g transform="translate(1.00,1.00)" id="group1"><g transform="translate(0.00,270.00)" id="shape2"><path fill="#d7d7d7" fill-rule="nonzero" stroke-width="1" d="M852.0,206.0C858.6,206.0,864.0,200.6,864.0,194.0L864.0,12.0C864.0,5.4,858.6,.0,852.0,.0L12.0,.0C5.4,.0,.0,5.4,.0,12.0L.0,194.0C.0,200.6,5.4,206.0,12.0,206.0L852.0,206.0z" stroke="#002060"/><text xml:space="preserve" style="fill:#002060;font-family:Poppins;font-size:10.00pt;font-weight:bold"><tspan x="405.5" y="19.0">Normes</tspan></text></g><g transform="translate(25.50,397.25)" id="group3"><g id="shape4"><path fill="#ffffff" fill-rule="nonzero" stroke-width="0.6666669845581055" d="M177.5,69.4C181.4,69.4,184.5,66.3,184.5,62.4L184.5,7.0C184.5,3.1,181.4,.0,177.5,.0L7.0,.0C3.1,.0,.0,3.1,.0,7.0L.0,62.4C.0,66.3,3.1,69.4,7.0,69.4L177.5,69.4z" stroke="#afafaf"/><text xml:space="preserve" style="fill:#696969;font-family:Poppins;font-size:10.00pt"><tspan x="65.8" y="26.7">Sécurité</tspan><tspan x="62.8" y="49.7">Principes</tspan></text></g><g transform="translate(156.00,49.22)" id="shape5"><text xml:space="preserve" style="fill:#bc8c1a;font-family:Poppins;font-size:7.00pt"><tspan x="6.8" y="12.1">100</tspan></text></g></g><g transform="translate(233.92,397.25)" id="group6"><g id="shape7"><path fill="#ffffff" fill-rule="nonzero" stroke-width="0.6666669845581055" d="M177.5,69.4C181.4,69.4,184.5,66.3,184.5,62.4L184.5,7.0C184.5,3.1,181.4,.0,177.5,.0L7.0,.0C3.1,.0,.0,3.1,.0,7.0L.0,62.4C.0,66.3,3.1,69.4,7.0,69.4L177.5,69.4z" stroke="#afafaf"/><text xml:space="preserve" style="fill:#696969;font-family:Poppins;font-size:10.00pt"><tspan x="65.8" y="26.7">Sécurité</tspan><tspan x="34.8" y="49.7">Types de groupes</tspan></text></g><g transform="translate(156.00,49.22)" id="shape8"><text xml:space="preserve" style="fill:#bc8c1a;font-family:Poppins;font-size:7.00pt"><tspan x="8.3" y="12.5">101</tspan></text></g></g><g transform="translate(444.08,397.25)" id="group9"><g id="shape10"><path fill="#ffffff" fill-rule="nonzero" stroke-width="0.6666669845581055" d="M177.5,69.4C181.4,69.4,184.5,66.3,184.5,62.4L184.5,7.0C184.5,3.1,181.4,.0,177.5,.0L7.0,.0C3.1,.0,.0,3.1,.0,7.0L.0,62.4C.0,66.3,3.1,69.4,7.0,69.4L177.5,69.4z" stroke="#afafaf"/><text xml:space="preserve" style="fill:#696969;font-family:Poppins;font-size:10.00pt"><tspan x="65.8" y="26.7">Sécurité</tspan><tspan x="36.3" y="49.7">Profils utilisateurs</tspan></text></g><g transform="translate(156.00,49.22)" id="shape11"><text xml:space="preserve" style="fill:#bc8c1a;font-family:Poppins;font-size:7.00pt"><tspan x="7.3" y="12.1">102</tspan></text></g></g><g transform="translate(232.42,305.00)" id="group12"><g id="shape13"><path fill="#ffffff" fill-rule="nonzero" stroke-width="0.6666669845581055" d="M179.0,70.0C182.9,70.0,186.0,66.9,186.0,63.0L186.0,7.0C186.0,3.1,182.9,.0,179.0,.0L7.0,.0C3.1,.0,.0,3.1,.0,7.0L.0,63.0C.0,66.9,3.1,70.0,7.0,70.0L179.0,70.0z" stroke="#afafaf"/><text xml:space="preserve" style="fill:#696969;font-family:Poppins;font-size:10.00pt"><tspan x="40.5" y="27.0">Nommenclature</tspan><tspan x="10.5" y="50.0">groupes AD/compte serv.</tspan></text></g><g transform="translate(157.50,49.78)" id="shape14"><text xml:space="preserve" style="fill:#bc8c1a;font-family:Poppins;font-size:7.00pt"><tspan x="6.8" y="12.5">091</tspan></text></g></g><g transform="translate(444.08,305.00)" id="group15"><g id="shape16"><path fill="#ffffff" fill-rule="nonzero" stroke-width="0.6666669845581055" d="M179.0,70.0C182.9,70.0,186.0,66.9,186.0,63.0L186.0,7.0C186.0,3.1,182.9,.0,179.0,.0L7.0,.0C3.1,.0,.0,3.1,.0,7.0L.0,63.0C.0,66.9,3.1,70.0,7.0,70.0L179.0,70.0z" stroke="#afafaf"/><text xml:space="preserve" style="fill:#696969;font-family:Poppins;font-size:10.00pt"><tspan x="40.5" y="27.0">Nommenclature</tspan><tspan x="27.5" y="50.0">Couche sémantique</tspan></text></g><g transform="translate(157.50,49.78)" id="shape17"><text xml:space="preserve" style="fill:#bc8c1a;font-family:Poppins;font-size:7.00pt"><tspan x="5.8" y="12.5">092</tspan></text></g></g><g transform="translate(655.75,305.00)" id="group18"><g id="shape19"><path fill="#ffffff" fill-rule="nonzero" stroke-width="0.6666669845581055" d="M179.0,70.0C182.9,70.0,186.0,66.9,186.0,63.0L186.0,7.0C186.0,3.1,182.9,.0,179.0,.0L7.0,.0C3.1,.0,.0,3.1,.0,7.0L.0,63.0C.0,66.9,3.1,70.0,7.0,70.0L179.0,70.0z" stroke="#afafaf"/><text xml:space="preserve" style="fill:#696969;font-family:Poppins;font-size:10.00pt"><tspan x="40.5" y="27.0">Nommenclature</tspan><tspan x="66.5" y="50.0">Rapport</tspan></text></g><g transform="translate(157.50,49.78)" id="shape20"><text xml:space="preserve" style="fill:#bc8c1a;font-family:Poppins;font-size:7.00pt"><tspan x="5.8" y="12.5">093</tspan></text></g></g><g transform="translate(22.25,305.00)" id="group21"><g id="shape22"><path fill="#ffffff" fill-rule="nonzero" stroke-width="0.6666669845581055" d="M179.0,70.0C182.9,70.0,186.0,66.9,186.0,63.0L186.0,7.0C186.0,3.1,182.9,.0,179.0,.0L7.0,.0C3.1,.0,.0,3.1,.0,7.0L.0,63.0C.0,66.9,3.1,70.0,7.0,70.0L179.0,70.0z" stroke="#afafaf"/><text xml:space="preserve" style="fill:#696969;font-family:Poppins;font-size:10.00pt"><tspan x="40.5" y="27.0">Nommenclature</tspan><tspan x="41.0" y="50.0">Service Power BI</tspan></text></g><g transform="translate(157.50,49.78)" id="shape23"><text xml:space="preserve" style="fill:#bc8c1a;font-family:Poppins;font-size:7.00pt"><tspan x="5.3" y="12.1">090</tspan></text></g></g><g id="shape24"><path fill="#ffffff" fill-rule="nonzero" stroke-width="1" d="M852.0,294.0C858.6,294.0,864.0,288.6,864.0,282.0L864.0,12.0C864.0,5.4,858.6,.0,852.0,.0L12.0,.0C5.4,.0,.0,5.4,.0,12.0L.0,282.0C.0,288.6,5.4,294.0,12.0,294.0L852.0,294.0z" stroke="#002060"/><text xml:space="preserve" style="fill:#002060;font-family:Poppins;font-size:10.00pt;font-weight:bold"><tspan x="405.5" y="19.0">Normes</tspan></text></g><g transform="translate(233.92,38.06)" id="group25"><g transform="translate(0.00,0.00)" id="shape26"><path fill="#ffffff" fill-rule="nonzero" stroke-width="0.6666669845581055" d="M177.5,69.4C181.4,69.4,184.5,66.3,184.5,62.4L184.5,7.0C184.5,3.1,181.4,.0,177.5,.0L7.0,.0C3.1,.0,.0,3.1,.0,7.0L.0,62.4C.0,66.3,3.1,69.4,7.0,69.4L177.5,69.4z" stroke="#afafaf"/><text xml:space="preserve" style="fill:#696969;font-family:Poppins;font-size:10.00pt"><tspan x="65.8" y="38.2">Sécurité</tspan></text></g><g transform="translate(156.00,49.22)" id="shape27"><text xml:space="preserve" style="fill:#bc8c1a;font-family:Poppins;font-size:7.00pt"><tspan x="6.8" y="12.1">100</tspan></text></g></g><g transform="translate(22.25,37.78)" id="group28"><g id="shape29"><path fill="#ffffff" fill-rule="nonzero" stroke-width="0.6666669845581055" d="M179.0,70.0C182.9,70.0,186.0,66.9,186.0,63.0L186.0,7.0C186.0,3.1,182.9,.0,179.0,.0L7.0,.0C3.1,.0,.0,3.1,.0,7.0L.0,63.0C.0,66.9,3.1,70.0,7.0,70.0L179.0,70.0z" stroke="#afafaf"/><text xml:space="preserve" style="fill:#696969;font-family:Poppins;font-size:10.00pt"><tspan x="40.5" y="38.5">Nommenclature</tspan></text></g><g transform="translate(157.50,49.78)" id="shape30"><text xml:space="preserve" style="fill:#bc8c1a;font-family:Poppins;font-size:7.00pt"><tspan x="5.3" y="12.1">090</tspan></text></g></g><g transform="translate(444.08,37.78)" id="group31"><g id="shape32"><path fill="#ffffff" fill-rule="nonzero" stroke-width="0.6666669845581055" d="M179.0,70.0C182.9,70.0,186.0,66.9,186.0,63.0L186.0,7.0C186.0,3.1,182.9,.0,179.0,.0L7.0,.0C3.1,.0,.0,3.1,.0,7.0L.0,63.0C.0,66.9,3.1,70.0,7.0,70.0L179.0,70.0z" stroke="#afafaf"/><text xml:space="preserve" style="fill:#696969;font-family:Poppins;font-size:10.00pt"><tspan x="27.5" y="38.5">Couche sémantique</tspan></text></g><g transform="translate(157.50,49.78)" id="shape33"><text xml:space="preserve" style="fill:#bc8c1a;font-family:Poppins;font-size:7.00pt"><tspan x="5.8" y="12.1">200</tspan></text></g></g><g transform="translate(655.75,37.78)" id="group34"><g id="shape35"><path fill="#ffffff" fill-rule="nonzero" stroke-width="0.6666669845581055" d="M179.0,70.0C182.9,70.0,186.0,66.9,186.0,63.0L186.0,7.0C186.0,3.1,182.9,.0,179.0,.0L7.0,.0C3.1,.0,.0,3.1,.0,7.0L.0,63.0C.0,66.9,3.1,70.0,7.0,70.0L179.0,70.0z" stroke="#afafaf"/><text xml:space="preserve" style="fill:#696969;font-family:Poppins;font-size:10.00pt"><tspan x="58.5" y="27.0">Graphique</tspan><tspan x="49.0" y="50.0">&amp; Rapport PBI</tspan></text></g><g transform="translate(157.50,48.89)" id="shape36"><text xml:space="preserve" style="fill:#bc8c1a;font-family:Poppins;font-size:7.00pt"><tspan x="5.8" y="12.1">300</tspan></text></g></g><g transform="translate(655.75,121.17)" id="group37"><g id="shape38"><path fill="#ffffff" fill-rule="nonzero" stroke-width="0.6666669845581055" d="M179.0,70.0C182.9,70.0,186.0,66.9,186.0,63.0L186.0,7.0C186.0,3.1,182.9,.0,179.0,.0L7.0,.0C3.1,.0,.0,3.1,.0,7.0L.0,63.0C.0,66.9,3.1,70.0,7.0,70.0L179.0,70.0z" stroke="#afafaf"/><text xml:space="preserve" style="fill:#696969;font-family:Poppins;font-size:10.00pt"><tspan x="31.5" y="27.0">Accompagnement </tspan><tspan x="68.5" y="50.0">affaires</tspan></text></g><g transform="translate(157.50,49.78)" id="shape39"><text xml:space="preserve" style="fill:#bc8c1a;font-family:Poppins;font-size:7.00pt"><tspan x="5.3" y="12.1">800</tspan></text></g></g><g transform="translate(233.92,121.17)" id="group40"><g id="shape41"><path fill="#ffffff" fill-rule="nonzero" stroke-width="0.6666669845581055" d="M179.0,70.0C182.9,70.0,186.0,66.9,186.0,63.0L186.0,7.0C186.0,3.1,182.9,.0,179.0,.0L7.0,.0C3.1,.0,.0,3.1,.0,7.0L.0,63.0C.0,66.9,3.1,70.0,7.0,70.0L179.0,70.0z" stroke="#afafaf"/><text xml:space="preserve" style="fill:#696969;font-family:Poppins;font-size:10.00pt"><tspan x="38.5" y="27.0">Certification des </tspan><tspan x="41.0" y="50.0">jeux de données</tspan></text></g><g transform="translate(157.50,48.89)" id="shape42"><text xml:space="preserve" style="fill:#bc8c1a;font-family:Poppins;font-size:7.00pt"><tspan x="5.3" y="12.1">600</tspan></text></g></g><g transform="translate(233.92,204.28)" id="group43"><g id="shape44"><path fill="#ffffff" fill-rule="nonzero" stroke-width="0.6666669845581055" d="M179.0,70.0C182.9,70.0,186.0,66.9,186.0,63.0L186.0,7.0C186.0,3.1,182.9,.0,179.0,.0L7.0,.0C3.1,.0,.0,3.1,.0,7.0L.0,63.0C.0,66.9,3.1,70.0,7.0,70.0L179.0,70.0z" stroke="#afafaf"/><text xml:space="preserve" style="fill:#696969;font-family:Poppins;font-size:10.00pt"><tspan x="17.0" y="38.5">Gestion du code source</tspan></text></g><g transform="translate(159.25,49.78)" id="shape45"><text xml:space="preserve" style="fill:#bc8c1a;font-family:Poppins;font-size:7.00pt"><tspan x="5.8" y="12.1">930</tspan></text></g></g><g transform="translate(22.25,204.28)" id="group46"><g id="shape47"><path fill="#ffffff" fill-rule="nonzero" stroke-width="0.6666669845581055" d="M179.0,70.0C182.9,70.0,186.0,66.9,186.0,63.0L186.0,7.0C186.0,3.1,182.9,.0,179.0,.0L7.0,.0C3.1,.0,.0,3.1,.0,7.0L.0,63.0C.0,66.9,3.1,70.0,7.0,70.0L179.0,70.0z" stroke="#afafaf"/><text xml:space="preserve" style="fill:#696969;font-family:Poppins;font-size:10.00pt"><tspan x="68.0" y="27.0">DevOps</tspan><tspan x="67.0" y="50.0">(Agilité)</tspan></text></g><g transform="translate(159.25,48.89)" id="shape48"><text xml:space="preserve" style="fill:#bc8c1a;font-family:Poppins;font-size:7.00pt"><tspan x="5.3" y="12.1">900</tspan></text></g></g><g transform="translate(22.25,121.17)" id="group49"><g id="shape50"><path fill="#ffffff" fill-rule="nonzero" stroke-width="0.6666669845581055" d="M179.0,70.0C182.9,70.0,186.0,66.9,186.0,63.0L186.0,7.0C186.0,3.1,182.9,.0,179.0,.0L7.0,.0C3.1,.0,.0,3.1,.0,7.0L.0,63.0C.0,66.9,3.1,70.0,7.0,70.0L179.0,70.0z" stroke="#afafaf"/><text xml:space="preserve" style="fill:#696969;font-family:Poppins;font-size:10.00pt"><tspan x="40.5" y="27.0">Service Power bi</tspan><tspan x="13.0" y="50.0">Arch. Fonct / découpage</tspan></text></g><g transform="translate(157.50,49.78)" id="shape51"><text xml:space="preserve" style="fill:#bc8c1a;font-family:Poppins;font-size:7.00pt"><tspan x="5.3" y="12.5">500</tspan></text></g></g><g transform="translate(444.08,124.67)" id="group52"><g id="shape53"><path fill="#ffffff" fill-rule="nonzero" stroke-width="0.6666669845581055" d="M179.0,70.0C182.9,70.0,186.0,66.9,186.0,63.0L186.0,7.0C186.0,3.1,182.9,.0,179.0,.0L7.0,.0C3.1,.0,.0,3.1,.0,7.0L.0,63.0C.0,66.9,3.1,70.0,7.0,70.0L179.0,70.0z" stroke="#afafaf"/><text xml:space="preserve" style="fill:#696969;font-family:Poppins;font-size:10.00pt"><tspan x="38.5" y="27.0">Certification des </tspan><tspan x="63.0" y="50.0">Rapports</tspan></text></g><g transform="translate(157.50,48.89)" id="shape54"><text xml:space="preserve" style="fill:#bc8c1a;font-family:Poppins;font-size:7.00pt"><tspan x="6.8" y="12.5">610</tspan></text></g></g></g></svg>